<svg width="16" height="16" viewBox="0 0 16 16" fill="none" xmlns="http://www.w3.org/2000/svg">
<path d="M11.3876 5.81461V4.29037C11.589 4.19623 11.7595 4.04681 11.8793 3.85951C11.9992 3.67222 12.0633 3.45474 12.0643 3.2324V3.19743C12.0643 2.54916 11.5388 2.02364 10.8906 2.02364H10.8556C10.2073 2.02364 9.68179 2.54916 9.68179 3.19743V3.2324C9.68282 3.45474 9.74697 3.67222 9.86678 3.85951C9.9866 4.04681 10.1571 4.19623 10.3586 4.29037V5.81461C9.77965 5.90327 9.23444 6.14332 8.77813 6.51046L4.59781 3.25441C4.62761 3.1468 4.64316 3.03615 4.64492 2.92508C4.64543 2.66349 4.56835 2.40762 4.42342 2.18984C4.27849 1.97206 4.07223 1.80215 3.83073 1.70161C3.58922 1.60107 3.32333 1.57441 3.06667 1.62501C2.81002 1.67561 2.57413 1.80119 2.38886 1.98586C2.20358 2.17054 2.07724 2.40601 2.02581 2.66251C1.97438 2.919 2.00018 3.18498 2.09993 3.42681C2.19969 3.66863 2.36892 3.87545 2.58623 4.02108C2.80354 4.16671 3.05916 4.24463 3.32075 4.24496C3.5496 4.24388 3.77416 4.18279 3.97201 4.06777L8.08843 7.27098C7.33163 8.41424 7.35188 9.90423 8.13942 11.0266L6.88742 12.2789C6.78617 12.2466 6.68079 12.2294 6.57452 12.2279C5.97492 12.2285 5.48918 12.7147 5.48933 13.3143C5.48949 13.9139 5.97554 14.3999 6.57509 14.4C7.17469 14.4002 7.66096 13.9144 7.66147 13.3148C7.66006 13.2086 7.64286 13.1032 7.61044 13.002L8.849 11.763C9.95569 12.6149 11.4756 12.6883 12.6593 11.947C13.8429 11.2056 14.4402 9.80592 14.1566 8.43841C13.873 7.07085 12.7684 6.02419 11.3876 5.81456V5.81461ZM10.8742 10.8277C10.6454 10.8339 10.4176 10.7941 10.2044 10.7108C9.99122 10.6275 9.79688 10.5023 9.63285 10.3427C9.46884 10.183 9.33847 9.99208 9.24945 9.7812C9.16043 9.57031 9.11457 9.34373 9.11457 9.11483C9.11457 8.88593 9.16043 8.65935 9.24945 8.44846C9.33847 8.23758 9.46884 8.04667 9.63285 7.887C9.79688 7.72734 9.99122 7.60215 10.2044 7.51884C10.4176 7.43553 10.6454 7.39577 10.8742 7.40193C11.7963 7.43422 12.5273 8.19086 12.5278 9.11359C12.5282 10.0362 11.798 10.7936 10.8759 10.8269" fill="#FF7A59"/>
</svg>
