<svg width="16" height="16" viewBox="0 0 16 16" fill="none" xmlns="http://www.w3.org/2000/svg">
  <path fill-rule="evenodd" clip-rule="evenodd" d="M3.1875 1H12.8125C14.0206 1 15 1.97938 15 3.1875V12.8125C15 14.0206 14.0206 15 12.8125 15H3.1875C1.97938 15 1 14.0206 1 12.8125V3.1875C1 1.97938 1.97938 1 3.1875 1ZM7.08022 4.11838C7.37794 3.80437 8.00044 3.33334 9.07403 3.33334C10.9144 3.33334 12.1595 4.7377 12.1505 6.82244C12.1505 8.881 10.8423 10.3115 8.97478 10.3115C8.08164 10.3115 7.51326 9.94522 7.21554 9.68349V12.6666H5.30294V5.24361C5.30294 5.13895 5.26685 5.10405 5.15859 5.10405H4.5V3.48162H6.11489C6.85468 3.48162 7.04413 3.83925 7.08022 4.11838ZM7.18848 6.85732C7.18848 7.74704 7.65761 8.69782 8.68609 8.69782C9.44392 8.69782 10.2198 8.13084 10.2288 6.83988C10.2288 5.71464 9.61533 4.96449 8.71316 4.96449C7.97337 4.96449 7.18848 5.46169 7.18848 6.85732Z" fill="#26292C"/>
</svg>
