<svg width="16" height="16" viewBox="0 0 16 16" fill="none" xmlns="http://www.w3.org/2000/svg">
<path fill-rule="evenodd" clip-rule="evenodd" d="M7.21558 12.544C6.66713 13.0349 5.94287 13.3333 5.14889 13.3333C3.43681 13.3333 2.04889 11.9454 2.04889 10.2333C2.04889 10.114 2.05564 9.99616 2.06877 9.8803C1.15897 9.43028 0.533325 8.49265 0.533325 7.4089C0.533325 5.88705 1.76703 4.65335 3.28888 4.65335C3.70293 4.65335 4.09564 4.74467 4.44799 4.90826C5.08405 3.76979 6.30101 3 7.69776 3C9.33312 3 10.722 4.05526 11.2206 5.52199C11.6333 5.31868 12.0978 5.20447 12.5889 5.20447C14.301 5.20447 15.6889 6.59239 15.6889 8.30447C15.6889 10.0166 14.301 11.4045 12.5889 11.4045C12.4451 11.4045 12.3036 11.3947 12.165 11.3757C11.7102 12.5225 10.5909 13.3333 9.28227 13.3333C8.48829 13.3333 7.76403 13.0349 7.21558 12.544Z" fill="#199EDF"/>
</svg>
